<svg xmlns="http://www.w3.org/2000/svg" viewBox="0 0 24 24" width="24" height="24" fill="none">
  <!-- nowen-note 品牌小图标 · 折角笔记卡片 + N 字母 + 铅笔一撇 -->
  <path d="M5.5 3.5h9L19 8v11a1.5 1.5 0 0 1-1.5 1.5h-12A1.5 1.5 0 0 1 4 19V5a1.5 1.5 0 0 1 1.5-1.5Z" fill="#FFFFFF" stroke="#3B82F6" stroke-width="1.6" stroke-linejoin="round"/>
  <path d="M14.5 3.5V8H19" stroke="#3B82F6" stroke-width="1.6" stroke-linejoin="round"/>
  <path d="M4 3.5h1.5V20H4z" fill="#3B82F6"/>
  <path d="M8.5 17V10.5l6 6.5V10.5" stroke="#3B82F6" stroke-width="1.8" stroke-linecap="round" stroke-linejoin="round"/>
  <path d="m17.5 14.2 1.5-1.5 1.5 1.5-1.5 1.5z" fill="#3B82F6"/>
  <path d="m18.3 15.5-.3 1.3 1.3-.3z" fill="#F59E0B"/>
</svg>
