<svg xmlns="http://www.w3.org/2000/svg" viewBox="0 0 24 24" width="24" height="24" fill="none" stroke="currentColor" stroke-width="2" stroke-linecap="round" stroke-linejoin="round">
  <!-- 插件 · 拼图 -->
  <path d="M9 3.5h3.5a1 1 0 0 1 1 1V7a1.5 1.5 0 1 0 3 0V4.5a1 1 0 0 1 1-1H21v4.5h-1.5a1.5 1.5 0 1 0 0 3H21V15h-2.5a1 1 0 0 1-1 1v4.5H14a1 1 0 0 1-1-1V17a1.5 1.5 0 1 0-3 0v2.5a1 1 0 0 1-1 1H4.5V16a1 1 0 0 1 1-1H7a1.5 1.5 0 1 0 0-3H5.5a1 1 0 0 1-1-1V7.5a1 1 0 0 1 1-1H8a1 1 0 0 0 1-1V3.5Z" stroke="#3B82F6"/>
</svg>
