<svg xmlns="http://www.w3.org/2000/svg" style="display:none">
  <!-- nowen-note Icon Sprite · 默认 stroke="currentColor", 2px, 圆角 -->
  <defs>
    <style>
      symbol { fill: none; stroke: currentColor; stroke-width: 2; stroke-linecap: round; stroke-linejoin: round; }
    </style>
  </defs>

  <symbol id="brand" viewBox="0 0 24 24">
    <path d="M5.5 3.5h9L19 8v11a1.5 1.5 0 0 1-1.5 1.5h-12A1.5 1.5 0 0 1 4 19V5a1.5 1.5 0 0 1 1.5-1.5Z" fill="#FFFFFF" stroke="#3B82F6" stroke-width="1.6"/>
    <path d="M14.5 3.5V8H19" stroke="#3B82F6" stroke-width="1.6"/>
    <path d="M4 3.5h1.5V20H4z" fill="#3B82F6" stroke="none"/>
    <path d="M8.5 17V10.5l6 6.5V10.5" stroke="#3B82F6" stroke-width="1.8"/>
    <path d="m17.5 14.2 1.5-1.5 1.5 1.5-1.5 1.5z" fill="#3B82F6" stroke="none"/>
    <path d="m18.3 15.5-.3 1.3 1.3-.3z" fill="#F59E0B" stroke="none"/>
  </symbol>

  <symbol id="notebook" viewBox="0 0 24 24">
    <path d="M6 3h12a1 1 0 0 1 1 1v16a1 1 0 0 1-1 1H6a2 2 0 0 1-2-2V5a2 2 0 0 1 2-2Z"/>
    <path d="M4 8h2M4 12h2M4 16h2"/>
    <path d="M9 7h6M9 11h6M9 15h4" stroke="#3B82F6"/>
  </symbol>

  <symbol id="note" viewBox="0 0 24 24">
    <path d="M6 3h8l5 5v11a2 2 0 0 1-2 2H6a2 2 0 0 1-2-2V5a2 2 0 0 1 2-2Z"/>
    <path d="M14 3v5h5" stroke="#3B82F6"/>
    <path d="M8 13h8M8 17h5"/>
  </symbol>

  <symbol id="tag" viewBox="0 0 24 24">
    <path d="M20.6 13.4 13 21a1.4 1.4 0 0 1-2 0L3 13V4a1 1 0 0 1 1-1h9l7.6 7.6a1.4 1.4 0 0 1 0 2Z"/>
    <circle cx="7.5" cy="7.5" r="1.5" fill="#22C55E" stroke="#22C55E"/>
  </symbol>

  <symbol id="task" viewBox="0 0 24 24">
    <rect x="3" y="3" width="18" height="18" rx="3"/>
    <path d="m8 12.5 2.5 2.5L16 9" stroke="#22C55E"/>
  </symbol>

  <symbol id="mindmap" viewBox="0 0 24 24">
    <circle cx="12" cy="12" r="3" fill="#3B82F6" stroke="#3B82F6"/>
    <circle cx="4" cy="6" r="2"/>
    <circle cx="4" cy="18" r="2"/>
    <circle cx="20" cy="6" r="2"/>
    <circle cx="20" cy="18" r="2"/>
    <path d="M6 7l3.5 3.5M6 17l3.5-3.5M18 7l-3.5 3.5M18 17l-3.5-3.5"/>
  </symbol>

  <symbol id="moment" viewBox="0 0 24 24">
    <path d="M4 5h14a2 2 0 0 1 2 2v8a2 2 0 0 1-2 2h-6l-4 4v-4H4a2 2 0 0 1-2-2V7a2 2 0 0 1 2-2Z"/>
    <circle cx="8" cy="11" r="1" fill="currentColor"/>
    <circle cx="12" cy="11" r="1" fill="currentColor"/>
    <circle cx="16" cy="11" r="1" fill="#3B82F6" stroke="#3B82F6"/>
  </symbol>

  <symbol id="search" viewBox="0 0 24 24">
    <circle cx="11" cy="11" r="6"/>
    <path d="m20 20-4.5-4.5" stroke="#3B82F6"/>
  </symbol>

  <symbol id="trash" viewBox="0 0 24 24">
    <path d="M4 7h16"/>
    <path d="M9 7V4h6v3"/>
    <path d="M6 7v13a1 1 0 0 0 1 1h10a1 1 0 0 0 1-1V7"/>
    <path d="M10 11v6M14 11v6"/>
  </symbol>

  <symbol id="favorites" viewBox="0 0 24 24">
    <path d="m12 3 2.9 5.9 6.6.9-4.8 4.6 1.1 6.5L12 17.8 6.2 20.9l1.1-6.5L2.5 9.8l6.6-.9L12 3Z" fill="#F59E0B" stroke="#F59E0B"/>
  </symbol>

  <symbol id="history" viewBox="0 0 24 24">
    <path d="M3 12a9 9 0 1 0 3-6.7"/>
    <path d="M3 4v4h4"/>
    <path d="M12 8v4l3 2" stroke="#3B82F6"/>
  </symbol>

  <symbol id="ai-assistant" viewBox="0 0 24 24">
    <path d="M13 3 15 9l6 2-6 2-2 6-2-6-6-2 6-2 2-6Z" fill="#3B82F6" stroke="#3B82F6"/>
    <path d="M19 15.5 20 18l2.5 1-2.5 1-1 2.5-1-2.5-2.5-1 2.5-1 1-2.5Z" fill="#F59E0B" stroke="#F59E0B"/>
  </symbol>

  <symbol id="share" viewBox="0 0 24 24">
    <circle cx="18" cy="5" r="3" fill="#3B82F6" stroke="#3B82F6"/>
    <circle cx="6" cy="12" r="3"/>
    <circle cx="18" cy="19" r="3" fill="#3B82F6" stroke="#3B82F6"/>
    <path d="m8.6 10.5 6.8-3.9M8.6 13.5l6.8 3.9"/>
  </symbol>

  <symbol id="comment" viewBox="0 0 24 24">
    <path d="M4 5h12a2 2 0 0 1 2 2v6a2 2 0 0 1-2 2h-5l-3 3v-3H4a2 2 0 0 1-2-2V7a2 2 0 0 1 2-2Z"/>
    <path d="M22 11v5a2 2 0 0 1-2 2h-3l-2 2v-2" stroke="#3B82F6"/>
  </symbol>

  <symbol id="user" viewBox="0 0 24 24">
    <circle cx="12" cy="8" r="4"/>
    <path d="M4 21c0-4 3.6-7 8-7s8 3 8 7"/>
  </symbol>

  <symbol id="users" viewBox="0 0 24 24">
    <circle cx="9" cy="8" r="3.5"/>
    <path d="M2.5 20c0-3.6 2.9-6.5 6.5-6.5s6.5 2.9 6.5 6.5"/>
    <circle cx="17" cy="7" r="2.5" stroke="#3B82F6"/>
    <path d="M15.5 13.2c2.3.3 4.5 2 5.5 4.3" stroke="#3B82F6"/>
  </symbol>

  <symbol id="webhook" viewBox="0 0 24 24">
    <circle cx="7" cy="17" r="3"/>
    <circle cx="17" cy="17" r="3" stroke="#3B82F6"/>
    <circle cx="12" cy="6" r="3"/>
    <path d="M10.5 8.5 7.5 14"/>
    <path d="M13.5 8.5 16.5 14" stroke="#3B82F6"/>
    <path d="M9.5 17h5" stroke="#3B82F6"/>
  </symbol>

  <symbol id="add" viewBox="0 0 24 24">
    <circle cx="12" cy="12" r="9" stroke="#3B82F6"/>
    <path d="M12 8v8M8 12h8" stroke="#3B82F6"/>
  </symbol>

  <symbol id="edit" viewBox="0 0 24 24">
    <path d="M4 20h4L19.5 8.5a2.1 2.1 0 0 0-3-3L5 17v3Z"/>
    <path d="m14.5 6.5 3 3" stroke="#3B82F6"/>
    <path d="M5 17h3v3" stroke="#F59E0B"/>
  </symbol>

  <symbol id="save" viewBox="0 0 24 24">
    <path d="M5 3h11l3 3v13a2 2 0 0 1-2 2H5a2 2 0 0 1-2-2V5a2 2 0 0 1 2-2Z"/>
    <path d="M7 3v5h8V3" stroke="#3B82F6"/>
    <rect x="7" y="13" width="10" height="7" rx="1"/>
  </symbol>

  <symbol id="delete" viewBox="0 0 24 24">
    <path d="M4 7h16" stroke="#EF4444"/>
    <path d="M9 7V4h6v3" stroke="#EF4444"/>
    <path d="M6 7v13a1 1 0 0 0 1 1h10a1 1 0 0 0 1-1V7" stroke="#EF4444"/>
    <path d="m10 11 4 6M14 11l-4 6" stroke="#EF4444"/>
  </symbol>

  <symbol id="import" viewBox="0 0 24 24">
    <path d="M12 3v12" stroke="#3B82F6"/>
    <path d="m7 10 5 5 5-5" stroke="#3B82F6"/>
    <path d="M4 17v2a2 2 0 0 0 2 2h12a2 2 0 0 0 2-2v-2"/>
  </symbol>

  <symbol id="export" viewBox="0 0 24 24">
    <path d="M12 15V3" stroke="#3B82F6"/>
    <path d="m7 8 5-5 5 5" stroke="#3B82F6"/>
    <path d="M4 17v2a2 2 0 0 0 2 2h12a2 2 0 0 0 2-2v-2"/>
  </symbol>

  <symbol id="sync" viewBox="0 0 24 24">
    <path d="M20 11a8 8 0 0 0-14-4l-2 2"/>
    <path d="M4 5v4h4"/>
    <path d="M4 13a8 8 0 0 0 14 4l2-2" stroke="#3B82F6"/>
    <path d="M20 19v-4h-4" stroke="#3B82F6"/>
  </symbol>

  <symbol id="backup" viewBox="0 0 24 24">
    <ellipse cx="12" cy="5" rx="7" ry="2.5"/>
    <path d="M5 5v5c0 1.4 3.1 2.5 7 2.5s7-1.1 7-2.5V5"/>
    <path d="M5 12v5c0 1.4 3.1 2.5 7 2.5s7-1.1 7-2.5v-5" stroke="#3B82F6"/>
  </symbol>

  <symbol id="settings" viewBox="0 0 24 24">
    <path d="M12 2.5 13.6 5l3 .2.7 2.8L20 9.4l-.6 2.9L21 14.5l-1.8 2.3.1 3-2.8.8L15 23l-3-1-3 1-1.5-2.4-2.8-.8.1-3L3 14.5l1.6-2.2L4 9.4l2.7-1.4.7-2.8 3-.2L12 2.5Z"/>
    <circle cx="12" cy="12.5" r="3.2" fill="#3B82F6" stroke="#3B82F6"/>
  </symbol>

  <symbol id="plugin" viewBox="0 0 24 24">
    <path d="M9 3.5h3.5a1 1 0 0 1 1 1V7a1.5 1.5 0 1 0 3 0V4.5a1 1 0 0 1 1-1H21v4.5h-1.5a1.5 1.5 0 1 0 0 3H21V15h-2.5a1 1 0 0 1-1 1v4.5H14a1 1 0 0 1-1-1V17a1.5 1.5 0 1 0-3 0v2.5a1 1 0 0 1-1 1H4.5V16a1 1 0 0 1 1-1H7a1.5 1.5 0 1 0 0-3H5.5a1 1 0 0 1-1-1V7.5a1 1 0 0 1 1-1H8a1 1 0 0 0 1-1V3.5Z" stroke="#3B82F6"/>
  </symbol>
</svg>
